# Blender v2.91.2 OBJ File: 'stage.blend'
# www.blender.org
mtllib hourglass-top.oj.mtl.mtl
o Plane_Plane.002
v -1.000000 0.000010 1.000916
v 1.000000 0.000010 1.000916
v -1.000000 0.000010 -0.999084
v 1.000000 0.000010 -0.999084
v -0.295829 0.000010 -0.294912
v -0.295829 0.000010 0.296744
v 0.295828 0.000010 0.296744
v 0.295828 0.000010 -0.294912
v -0.827690 0.000010 -0.826774
v -0.827690 0.000010 0.828606
v 0.827690 0.000010 0.828606
v 0.827690 0.000010 -0.826774
v -0.570491 0.000010 -0.569575
v -0.570491 0.000010 0.571407
v 0.570491 0.000010 0.571407
v 0.570491 0.000010 -0.569575
v -0.295829 0.000010 0.000916
v -0.000000 0.000010 0.296744
v 0.295828 0.000010 0.000916
v -0.000000 0.000010 -0.294912
v -0.433160 0.000010 0.434076
v -0.433160 0.000010 -0.432243
v 0.433159 0.000010 0.434076
v 0.433159 0.000010 -0.432243
v -0.000000 0.000010 -0.432243
v 0.433159 0.000010 0.000916
v -0.000000 0.000010 0.434076
v -0.433160 0.000010 0.000916
v -0.295829 0.000010 0.148830
v 0.295828 0.000010 0.148830
v 0.295828 0.000010 -0.146998
v -0.295829 0.000010 -0.146998
v 0.147914 0.000010 0.296744
v 0.147914 0.000010 -0.294912
v -0.147914 0.000010 -0.294912
v -0.147914 0.000010 0.296744
v -0.147914 0.096818 -0.146998
v -0.147914 0.096818 0.148830
v -0.147914 0.096818 0.000916
v 0.147914 0.096818 -0.146998
v -0.000000 0.096818 -0.146998
v 0.147914 0.096818 0.148830
v 0.147914 0.096818 0.000916
v -0.000000 0.096818 0.000916
v -0.000000 0.096818 0.148830
v -0.000000 0.160309 -0.146998
v -0.000000 0.160309 0.148830
v -0.147914 0.160309 0.000916
v 0.147914 0.160309 0.000916
v 0.147914 0.160309 0.148830
v -0.147914 0.160309 0.148830
v -0.147914 0.160309 -0.146998
v 0.147914 0.160309 -0.146998
v 0.218829 0.000010 -0.569575
v -0.000000 0.000010 -0.569575
v 0.216579 0.000010 -0.432243
v -0.220714 0.000010 -0.569575
v -0.216580 0.000010 -0.432243
v 0.570491 0.000010 0.223899
v 0.570491 0.000010 0.000916
v 0.433159 0.000010 0.217496
v 0.570491 0.000010 -0.220192
v 0.433159 0.000010 -0.215664
v -0.217567 0.000010 0.571407
v -0.000000 0.000010 0.571407
v -0.216580 0.000010 0.434076
v 0.218783 0.000010 0.571407
v 0.216579 0.000010 0.434076
v -0.570491 0.000010 -0.220401
v -0.570491 0.000010 0.000916
v -0.433160 0.000010 -0.215664
v -0.570491 0.000010 0.220439
v -0.433160 0.000010 0.217496
v -0.146066 0.160309 0.148830
v -0.295829 0.010546 0.148830
v -0.146066 0.160309 0.146981
v -0.295829 0.010546 0.296744
v 0.147914 0.160309 0.146981
v 0.147914 0.010546 0.296744
v 0.146065 0.160309 0.146981
v 0.295828 0.010546 0.296744
v 0.146065 0.160309 -0.146998
v 0.295828 0.010546 -0.146998
v 0.146065 0.160309 -0.145149
v 0.295828 0.010546 -0.294912
v -0.147914 0.160309 -0.145149
v -0.147914 0.010546 -0.294912
v -0.146066 0.160309 -0.145149
v -0.295829 0.010546 -0.294912
v -0.146066 0.160309 -0.146998
v -0.295829 0.010546 -0.146998
v -0.295829 0.010546 0.000916
v -0.146066 0.160309 0.000916
v -0.147914 0.160309 0.146981
v -0.147914 0.010546 0.296744
v -0.000000 0.010546 0.296744
v -0.000000 0.160309 0.146981
v 0.146065 0.160309 0.148830
v 0.295828 0.010546 0.148830
v 0.295828 0.010546 0.000916
v 0.146065 0.160309 0.000916
v 0.147914 0.160309 -0.145149
v 0.147914 0.010546 -0.294912
v -0.000000 0.010546 -0.294912
v -0.000000 0.160309 -0.145149
v -0.000000 -0.999990 -0.432243
v 0.433159 -0.999990 0.000916
v -0.000000 -0.999990 0.434076
v -0.433160 -0.999990 0.000916
v 0.218829 -0.999990 -0.569575
v -0.000000 -0.999990 -0.569575
v 0.216579 -0.999990 -0.432243
v -0.220714 -0.999990 -0.569575
v -0.216580 -0.999990 -0.432243
v 0.570491 -0.999990 0.223899
v 0.570491 -0.999990 0.000916
v 0.433159 -0.999990 0.217496
v 0.570491 -0.999990 -0.220192
v 0.433159 -0.999990 -0.215664
v -0.217567 -0.999990 0.571407
v -0.000000 -0.999990 0.571407
v -0.216580 -0.999990 0.434076
v 0.218783 -0.999990 0.571407
v 0.216579 -0.999990 0.434076
v -0.570491 -0.999990 -0.220401
v -0.570491 -0.999990 0.000916
v -0.433160 -0.999990 -0.215664
v -0.570491 -0.999990 0.220439
v -0.433160 -0.999990 0.217496
v -1.000000 1.000010 1.000916
v 1.000000 1.000010 1.000916
v -1.000000 1.000010 -0.999084
v 1.000000 1.000010 -0.999084
v -1.000000 2.000010 1.000916
v 1.000000 2.000010 1.000916
v -1.000000 2.000010 -0.999084
v 1.000000 2.000010 -0.999084
vt 0.573957 0.426967
vt 0.573033 0.426967
vt 0.573033 0.426043
vt 0.573957 0.426043
vt 0.086155 0.086155
vt 0.086155 0.913845
vt 0.000000 1.000000
vt 0.000000 0.000000
vt 0.913845 0.086155
vt 1.000000 0.000000
vt 0.913845 0.913845
vt 1.000000 1.000000
vt 0.214755 0.214755
vt 0.214755 0.357377
vt 0.214755 0.500000
vt 0.214755 0.642623
vt 0.214755 0.785245
vt 0.785245 0.214755
vt 0.642623 0.214755
vt 0.500000 0.214755
vt 0.357377 0.214755
vt 0.785246 0.785246
vt 0.785246 0.642623
vt 0.785246 0.500000
vt 0.785246 0.357377
vt 0.357377 0.785245
vt 0.500000 0.785245
vt 0.642623 0.785246
vt 0.283420 0.608290
vt 0.283420 0.716580
vt 0.391710 0.283420
vt 0.283420 0.283420
vt 0.716580 0.391710
vt 0.716580 0.283420
vt 0.608290 0.716580
vt 0.716580 0.716580
vt 0.426043 0.647914
vt 0.500000 0.647914
vt 0.500000 0.716580
vt 0.391710 0.716580
vt 0.573957 0.647914
vt 0.647914 0.647914
vt 0.647914 0.573957
vt 0.647914 0.500000
vt 0.716580 0.500000
vt 0.716580 0.608290
vt 0.647914 0.426043
vt 0.647914 0.352086
vt 0.573957 0.352086
vt 0.500000 0.352086
vt 0.500000 0.283420
vt 0.608290 0.283420
vt 0.426043 0.352086
vt 0.352086 0.352086
vt 0.352086 0.426043
vt 0.352086 0.500000
vt 0.283420 0.500000
vt 0.283420 0.391710
vt 0.352086 0.573957
vt 0.352086 0.647914
vt 0.500000 0.426967
vt 0.500000 0.426043
vt 0.500000 0.573957
vt 0.573957 0.573957
vt 0.573957 0.573033
vt 0.500000 0.573033
vt 0.426967 0.426967
vt 0.426043 0.426967
vt 0.426043 0.426043
vt 0.426967 0.426043
vt 0.573033 0.500000
vt 0.573957 0.500000
vt 0.647914 0.647914
vt 0.647914 0.573957
vt 0.426967 0.500000
vt 0.426043 0.500000
vt 0.426043 0.573957
vt 0.426967 0.573957
vt 0.573957 0.352086
vt 0.500000 0.352086
vt 0.352086 0.500000
vt 0.352086 0.573957
vt 0.426043 0.573033
vt 0.426967 0.573033
vt 0.426043 0.647914
vt 0.500000 0.647914
vt 0.573033 0.573957
vt 0.573033 0.573033
vt 0.647914 0.500000
vt 0.352086 0.647914
vt 0.426043 0.426043
vt 0.426043 0.500000
vt 0.573957 0.647914
vt 0.647914 0.426043
vt 0.647914 0.352086
vt 0.573957 0.500000
vt 0.573957 0.426043
vt 0.426043 0.573957
vt 0.500000 0.573957
vt 0.500000 0.426043
vt 0.500000 0.500000
vt 0.426043 0.352086
vt 0.352086 0.352086
vt 0.352086 0.426043
vt 0.573957 0.573957
vt 0.716580 0.500000
vt 0.716580 0.608290
vt 0.500000 0.214755
vt 0.357377 0.214755
vt 0.391710 0.716580
vt 0.357377 0.785245
vt 0.283420 0.391710
vt 0.214755 0.357377
vt 0.500000 0.716580
vt 0.214755 0.500000
vt 0.785246 0.500000
vt 0.785246 0.357377
vt 0.608290 0.283420
vt 0.642623 0.214755
vt 0.716580 0.391710
vt 0.391710 0.283420
vt 0.500000 0.785245
vt 0.642623 0.785246
vt 0.608290 0.716580
vt 0.785246 0.642623
vt 0.500000 0.283420
vt 0.214755 0.642623
vt 0.283420 0.608290
vt 0.283420 0.500000
vt 0.000000 1.000000
vt 0.000000 0.000000
vt 1.000000 1.000000
vt 1.000000 0.000000
vt 1.000000 0.000000
vt 1.000000 1.000000
vt 0.000000 1.000000
vt 0.000000 0.000000
vn 0.0000 1.0000 0.0000
vn 0.0000 -1.0000 0.0000
vn 1.0000 0.0000 0.0000
vn 0.0000 0.0000 1.0000
vn -1.0000 0.0000 0.0000
vn 0.0000 0.0000 -1.0000
vn -0.7071 0.7071 0.0000
vn 0.0000 0.7071 0.7071
vn 0.7071 0.7071 -0.0000
vn 0.0000 0.7071 -0.7071
vn 0.9995 0.0000 -0.0301
vn -0.0214 0.0000 -0.9998
vn -0.9999 0.0000 0.0160
vn 1.0000 0.0000 0.0072
vn 0.0466 0.0000 -0.9989
vn -0.9999 0.0000 -0.0164
vn 0.0330 0.0000 0.9995
vn -0.0345 0.0000 0.9994
usemtl None
s off
f 78/1/1 80/2/1 98/3/1 50/4/1
f 10/5/1 9/6/1 3/7/1 1/8/1
f 11/9/1 10/5/1 1/8/1 2/10/1
f 12/11/1 11/9/1 2/10/1 4/12/1
f 9/6/1 12/11/1 4/12/1 3/7/1
f 14/13/1 72/14/1 70/15/1 69/16/1 13/17/1 9/6/1 10/5/1
f 15/18/1 67/19/1 65/20/1 64/21/1 14/13/1 10/5/1 11/9/1
f 16/22/1 62/23/1 60/24/1 59/25/1 15/18/1 11/9/1 12/11/1
f 13/17/1 57/26/1 55/27/1 54/28/1 16/22/1 12/11/1 9/6/1
f 71/29/1 22/30/1 13/17/1 69/16/1
f 66/31/1 21/32/1 14/13/1 64/21/1
f 61/33/1 23/34/1 15/18/1 59/25/1
f 56/35/1 24/36/1 16/22/1 54/28/1
f 35/37/1 20/38/1 25/39/1 58/40/1
f 34/41/1 8/42/1 24/36/1 56/35/1
f 31/43/1 19/44/1 26/45/1 63/46/1
f 30/47/1 7/48/1 23/34/1 61/33/1
f 33/49/1 18/50/1 27/51/1 68/52/1
f 36/53/1 6/54/1 21/32/1 66/31/1
f 29/55/1 17/56/1 28/57/1 73/58/1
f 32/59/1 5/60/1 22/30/1 71/29/1
f 97/61/2 78/1/2 50/4/2 47/62/2
f 46/63/2 53/64/2 102/65/2 105/66/2
f 76/67/1 94/68/1 51/69/1 74/70/1
f 50/4/2 98/3/2 101/71/2 49/72/2
f 31/43/3 8/42/3 85/73/3 83/74/3
f 6/54/1 29/55/1 73/58/1 21/32/1
f 21/32/1 73/58/1 72/14/1 14/13/1
f 19/44/1 30/47/1 61/33/1 26/45/1
f 94/68/2 97/61/2 47/62/2 51/69/2
f 17/56/1 32/59/1 71/29/1 28/57/1
f 8/42/1 31/43/1 63/46/1 24/36/1
f 24/36/1 63/46/1 62/23/1 16/22/1
f 93/75/2 48/76/2 52/77/2 90/78/2
f 18/50/4 33/49/4 79/79/4 96/80/4
f 32/59/5 17/56/5 92/81/5 91/82/5
f 74/70/2 51/69/2 48/76/2 93/75/2
f 7/48/1 33/49/1 68/52/1 23/34/1
f 23/34/1 68/52/1 67/19/1 15/18/1
f 20/38/1 34/41/1 56/35/1 25/39/1
f 90/78/1 52/77/1 86/83/1 88/84/1
f 52/77/2 46/63/2 105/66/2 86/83/2
f 20/38/6 35/37/6 87/85/6 104/86/6
f 49/72/2 101/71/2 82/87/2 53/64/2
f 53/64/1 82/87/1 84/88/1 102/65/1
f 18/50/1 36/53/1 66/31/1 27/51/1
f 5/60/1 35/37/1 58/40/1 22/30/1
f 22/30/1 58/40/1 57/26/1 13/17/1
f 19/44/3 31/43/3 83/74/3 100/89/3
f 35/37/6 5/60/6 89/90/6 87/85/6
f 48/76/3 51/69/3 38/91/3 39/92/3
f 34/41/6 20/38/6 104/86/6 103/93/6
f 7/48/3 30/47/3 99/94/3 81/95/3
f 30/47/3 19/44/3 100/89/3 99/94/3
f 50/4/5 49/72/5 43/96/5 42/97/5
f 8/42/6 34/41/6 103/93/6 85/73/6
f 46/63/4 52/77/4 37/98/4 41/99/4
f 33/49/4 7/48/4 81/95/4 79/79/4
f 47/62/6 50/4/6 42/97/6 45/100/6
f 38/91/1 45/100/1 44/101/1 39/92/1
f 36/53/4 18/50/4 96/80/4 95/102/4
f 6/54/4 36/53/4 95/102/4 77/103/4
f 29/55/5 6/54/5 77/103/5 75/104/5
f 5/60/5 32/59/5 91/82/5 89/90/5
f 75/104/7 77/103/7 76/67/7 74/70/7
f 79/79/8 81/95/8 80/2/8 78/1/8
f 83/74/9 85/73/9 84/88/9 82/87/9
f 87/85/10 89/90/10 88/84/10 86/83/10
f 91/82/7 92/81/7 93/75/7 90/78/7
f 95/102/8 96/80/8 97/61/8 94/68/8
f 99/94/9 100/89/9 101/71/9 98/3/9
f 103/93/10 104/86/10 105/66/10 102/65/10
f 92/81/7 75/104/7 74/70/7 93/75/7
f 81/95/9 99/94/9 98/3/9 80/2/9
f 100/89/9 83/74/9 82/87/9 101/71/9
f 89/90/7 91/82/7 90/78/7 88/84/7
f 96/80/8 79/79/8 78/1/8 97/61/8
f 85/73/10 103/93/10 102/65/10 84/88/10
f 104/86/10 87/85/10 86/83/10 105/66/10
f 77/103/8 95/102/8 94/68/8 76/67/8
f 17/56/5 29/55/5 75/104/5 92/81/5
f 39/92/1 44/101/1 41/99/1 37/98/1
f 44/101/1 43/96/1 40/105/1 41/99/1
f 45/100/1 42/97/1 43/96/1 44/101/1
f 49/72/5 53/64/5 40/105/5 43/96/5
f 52/77/3 48/76/3 39/92/3 37/98/3
f 51/69/6 47/62/6 45/100/6 38/91/6
f 53/64/4 46/63/4 41/99/4 40/105/4
f 63/46/3 26/45/3 107/106/3 119/107/3
f 64/21/6 65/20/6 121/108/6 120/109/6
f 57/26/11 58/40/11 114/110/11 113/111/11
f 72/14/12 73/58/12 129/112/12 128/113/12
f 58/40/6 25/39/6 106/114/6 114/110/6
f 70/15/3 72/14/3 128/113/3 126/115/3
f 59/25/5 60/24/5 116/116/5 115/117/5
f 67/19/13 68/52/13 124/118/13 123/119/13
f 26/45/3 61/33/3 117/120/3 107/106/3
f 66/31/14 64/21/14 120/109/14 122/121/14
f 54/28/4 55/27/4 111/122/4 110/123/4
f 61/33/15 59/25/15 115/117/15 117/120/15
f 56/35/16 54/28/16 110/123/16 112/124/16
f 60/24/5 62/23/5 118/125/5 116/116/5
f 68/52/4 27/51/4 108/126/4 124/118/4
f 62/23/17 63/46/17 119/107/17 118/125/17
f 55/27/4 57/26/4 113/111/4 111/122/4
f 27/51/4 66/31/4 122/121/4 108/126/4
f 71/29/18 69/16/18 125/127/18 127/128/18
f 25/39/6 56/35/6 112/124/6 106/114/6
f 73/58/5 28/57/5 109/129/5 129/112/5
f 65/20/6 67/19/6 123/119/6 121/108/6
f 69/16/3 70/15/3 126/115/3 125/127/3
f 28/57/5 71/29/5 127/128/5 109/129/5
f 1/8/3 3/7/3 132/130/3 130/131/3
f 3/7/4 4/12/4 133/132/4 132/130/4
f 2/10/6 1/8/6 130/131/6 131/133/6
f 4/12/5 2/10/5 131/133/5 133/132/5
f 133/132/5 131/133/5 135/134/5 137/135/5
f 130/131/3 132/130/3 136/136/3 134/137/3
f 132/130/4 133/132/4 137/135/4 136/136/4
f 131/133/6 130/131/6 134/137/6 135/134/6
